<svg width="327" height="434" viewBox="0 0 327 434" fill="none" xmlns="http://www.w3.org/2000/svg">
<path fill-rule="evenodd" clip-rule="evenodd" d="M171.274 54.3654C166.873 48.4031 164.111 41.2803 165.193 33.591C168.312 11.4362 198.962 18.5012 204.205 30.1597C209.448 41.8183 206.739 70.2718 198.807 71.7353C195.643 72.319 189.161 69.8941 182.708 65.3624L184.845 95.5742L159.876 93.8283L171.274 54.3654Z" fill="#FCD3BA"/>
<path fill-rule="evenodd" clip-rule="evenodd" d="M154.826 25.4188C154.075 24.5632 153.715 23.3917 153.41 22.282C153.094 21.1292 152.789 19.9656 152.609 18.7761C152.248 16.3994 152.432 13.708 154.228 12.0078C155.669 10.6443 157.723 10.1312 159.587 10.1189C160.829 10.1105 162.085 10.3722 163.242 10.8442C164.39 11.3125 165.349 12.1529 166.454 12.7102C166.674 10.1915 167.29 7.5832 168.72 5.51952C170.096 3.53394 172.14 2.50864 174.397 2.35738C176.713 2.20218 178.941 2.89746 180.917 4.15176C181.412 4.46588 181.901 4.79291 182.365 5.15682C182.754 5.46156 183.155 5.82385 183.627 5.96966C184.152 6.13236 184.438 5.84248 184.812 5.4772C185.251 5.04891 185.738 4.67868 186.248 4.35597C188.503 2.92933 191.362 2.47788 193.781 3.59669C194.896 4.11216 195.957 4.92947 196.663 6.00274C197.292 6.95946 197.685 8.43481 198.596 9.13446C198.983 9.43145 199.295 9.09557 199.682 8.85834C200.264 8.50188 200.824 8.10274 201.412 7.75751C202.238 7.27247 203.12 6.92812 204.049 6.78055C205.409 6.5645 207.253 6.7664 207.514 8.54598C207.611 9.21441 207.452 9.91087 207.359 10.571C207.232 11.4774 207.101 12.3833 206.959 13.2873C206.85 13.9737 206.728 14.6354 206.55 15.3045C206.455 15.6611 206.191 16.3198 206.32 16.6927C206.482 17.1587 207.395 16.964 207.775 17.0064C208.528 17.0903 209.276 17.2756 209.951 17.6468C210.474 17.9345 211.017 18.3417 211.202 18.9773C211.315 19.3678 211.251 19.7562 211.158 20.1432C211.045 20.6076 211.119 20.8633 211.145 21.3417C212.193 20.9135 215.782 20.0505 216.097 21.8973C216.202 22.5123 215.819 23.1721 215.528 23.6642C215.017 24.5273 214.372 25.3037 213.717 26.0413C212.35 27.5801 210.756 28.8783 209.062 29.9654C210.889 30.9357 211.209 33.4432 209.473 34.8024C208.706 35.4025 207.727 35.4796 206.82 35.3743C206.489 35.3359 206.018 35.1743 205.752 35.214C205.609 35.2353 205.449 35.3442 205.253 35.3439C203.964 35.3421 202.536 34.9315 201.302 34.559C199.102 33.8952 197.059 32.6881 195.444 30.9542C195.029 30.5094 194.68 30.2456 194.083 30.21C193.559 30.1787 193.036 30.2862 192.513 30.2629C191.128 30.2016 189.929 29.4386 188.677 28.8991C188.477 30.6276 187.85 32.503 187.031 34.0134C186.364 35.2452 185.143 35.3456 183.948 35.3742C180.127 35.4659 176.346 34.801 172.545 34.5405C176.166 35.6293 179.944 36.2379 183.522 37.4715C185.139 38.029 183.803 39.0519 183.044 39.7727C181.795 40.9597 180.822 42.4706 180.108 44.084C178.472 41.6122 175.399 39.844 172.531 40.3676C169.361 40.946 166.874 45.0038 168.653 48.1706C169.686 50.0089 171.727 50.8334 173.411 51.7099C171.957 53.0241 171.484 55.082 170.546 56.7778C170.083 57.6141 169.45 58.5519 168.529 58.7903C168.189 58.8785 167.798 58.8607 167.516 59.1137C167.167 59.4269 167.064 59.797 166.628 60.0567C164.89 61.0932 162.307 60.8233 160.943 59.2167C159.709 57.7638 160.206 55.6357 161.412 54.3344C159.697 53.4747 156.545 52.3027 157.44 49.6C153.63 49.0782 144.771 42.2211 150.225 38.0444C147.518 36.254 145.2 32.179 147.251 28.8732C148.83 26.3276 152.155 25.3729 154.826 25.4188Z" fill="#191847"/>
<path fill-rule="evenodd" clip-rule="evenodd" d="M139.382 184.699L216.876 314.255L274.974 423.783H287.488L190.143 184.699L139.382 184.699Z" fill="#FCD3BA"/>
<path fill-rule="evenodd" clip-rule="evenodd" d="M267.323 418.729C266.156 421.843 265.573 424.174 265.573 425.72C265.573 427.6 265.886 430.345 266.512 433.953C268.694 433.953 288.301 433.953 325.334 433.953C326.862 428.899 325.98 426.171 322.687 425.768C319.393 425.365 316.657 425.002 314.479 424.677L287.14 412.489C286.614 412.254 285.997 412.491 285.762 413.017C285.758 413.026 285.755 413.035 285.751 413.044L283.993 417.307C280.945 418.729 278.467 419.44 276.561 419.44C275.013 419.44 272.874 418.815 270.145 417.564L270.145 417.564C269.098 417.084 267.86 417.544 267.38 418.591C267.359 418.636 267.34 418.682 267.323 418.729Z" fill="#E4E4E4"/>
<path fill-rule="evenodd" clip-rule="evenodd" d="M258.838 406.244L282.971 398.944C272.398 367.336 259.439 332.552 244.094 294.593C228.749 256.634 212.27 220.003 194.655 184.699H126.496C146.079 229.357 166.841 269.934 188.78 306.431C210.718 342.928 234.071 376.199 258.838 406.244Z" fill="#5C63AB"/>
<path fill-rule="evenodd" clip-rule="evenodd" d="M134.289 184.699C126.975 230.226 112.868 288.391 111.537 290.186C110.65 291.383 78.6985 302.09 15.6838 322.306L18.387 333.341C93.5318 322.499 133.127 314.087 137.172 308.105C143.239 299.133 173.535 228.254 185.269 184.699H134.289Z" fill="#FCD3BA"/>
<path fill-rule="evenodd" clip-rule="evenodd" d="M37.8345 312.767L42.5957 330.54C98.7997 335.469 133.237 331.907 145.908 319.854C158.579 307.801 173.02 262.749 189.231 184.699H124.237C113.966 248.612 108.224 281.909 107.01 284.592C105.797 287.275 82.7384 296.667 37.8345 312.767Z" fill="#8991DC"/>
<path fill-rule="evenodd" clip-rule="evenodd" d="M18.7697 317.709C15.4998 317.101 13.1035 316.931 11.5807 317.199C9.72865 317.526 7.08043 318.311 3.63605 319.555C4.01489 321.703 7.41962 341.012 13.8502 377.482C19.0922 378.11 21.6257 376.767 21.4506 373.454C21.2756 370.141 21.1588 367.383 21.1003 365.182L28.3558 336.141C28.4954 335.582 28.1556 335.016 27.5968 334.877C27.5872 334.874 27.5776 334.872 27.568 334.87L23.0647 333.879C21.1344 331.124 20.0038 328.808 19.6728 326.931C19.4039 325.405 19.6484 323.191 20.4065 320.286L20.4065 320.286C20.6974 319.172 20.0297 318.032 18.915 317.741C18.867 317.729 18.8185 317.718 18.7697 317.709Z" fill="#E4E4E4"/>
<path fill-rule="evenodd" clip-rule="evenodd" d="M232.459 174.423L260.979 204.256C269.441 208.221 276.339 212.513 281.671 217.133C282.853 218.664 284.097 221.563 278.336 220.084C272.575 218.605 266.448 217.309 265.291 219.158C264.134 221.008 267.248 224.014 265.146 226.414C263.744 228.015 259.405 222.617 252.13 210.221L222.06 191.048L232.459 174.423ZM85.9709 138.261L103.481 144.725C75.1426 182.682 60.0149 202.725 58.098 204.856C53.7848 209.651 55.4683 219.956 55.8464 225.303C48.0742 225.861 52.8176 215.044 42.9587 215.898C33.9599 216.677 25.7447 221.034 18.8503 212.311C18.0026 211.239 17.7291 208.264 21.3456 207.332C30.3558 205.013 43.8963 200.141 46.3369 197.804C49.6652 194.617 62.8765 174.769 85.9709 138.261Z" fill="#FCD3BA"/>
<path fill-rule="evenodd" clip-rule="evenodd" d="M239.63 178.382C243.899 178.823 248.361 180.33 252.984 182.853C255.259 184.094 256.097 186.945 254.856 189.22C254.135 190.542 252.871 191.378 251.492 191.604C252.312 192.456 253.14 193.306 253.978 194.154L242.738 209.569C211.017 186.095 180.633 167.257 170.786 136.002C167.48 125.513 174.927 93.1733 176.544 81.2157L188.322 78.6478C198.053 112.998 213.421 147.017 239.63 178.382Z" fill="#69A1AC"/>
<path fill-rule="evenodd" clip-rule="evenodd" d="M118.494 184.802C150.157 194.042 175.572 198.524 194.738 198.246C197.113 198.211 198.758 188.291 198.17 185.399C189.007 140.359 183.53 107.605 188.688 78.3534C185.364 79.4067 179.995 78.7057 172.581 76.2504C146.813 102.789 131.313 135.719 118.494 184.802Z" fill="#191847"/>
<path fill-rule="evenodd" clip-rule="evenodd" d="M111.616 188.723C110.702 187.498 110.403 185.851 110.965 184.307L112.035 181.367C112.76 179.374 114.694 178.171 116.707 178.285C117.324 176.805 117.891 175.327 118.404 173.851C122.74 161.382 121.417 148.173 123.762 135.845C104.763 147.023 85.6571 168.741 66.4458 200.999L48.0546 191.871C49.2795 189.252 50.5251 186.671 51.7912 184.129C49.7766 182.462 48.1883 176.171 50.2432 175.528C52.3654 174.863 54.5504 174.517 56.7934 174.482C84.0252 124.048 120.019 89.9986 164.774 72.3337L168.347 72.9637L176.454 74.3932C164.996 119.265 194.989 226.93 163.544 308.819C131.858 310.251 92.0706 281.395 46.7217 290.848C54.3194 256.978 92.9702 222.429 111.616 188.723L111.616 188.723Z" fill="#89C5CC"/>
<path fill-rule="evenodd" clip-rule="evenodd" d="M168.834 74.1086L160.663 89.4689L169.179 103.566L157.843 111.465L174.13 155.525L152.629 110.628L163.807 102.619L156.239 90.1535L168.834 74.1086Z" fill="black" fill-opacity="0.1"/>
<path fill-rule="evenodd" clip-rule="evenodd" d="M164.571 169.726C162.302 169.326 160.787 167.163 161.187 164.894C161.587 162.625 163.751 161.11 166.02 161.51C168.288 161.91 169.803 164.073 169.403 166.342C169.003 168.611 166.84 170.126 164.571 169.726ZM165.541 194.254C163.272 193.854 161.757 191.69 162.157 189.421C162.557 187.152 164.721 185.637 166.99 186.037C169.259 186.438 170.773 188.601 170.373 190.87C169.973 193.139 167.81 194.654 165.541 194.254ZM162.403 218.057C160.134 217.657 158.619 215.493 159.019 213.225C159.419 210.956 161.583 209.441 163.851 209.841C166.12 210.241 167.635 212.404 167.235 214.673C166.835 216.942 164.672 218.457 162.403 218.057Z" fill="black" fill-opacity="0.4"/>
</svg>
