<svg width="197" height="64" viewBox="0 0 197 64" fill="none" xmlns="http://www.w3.org/2000/svg">
<path d="M109.61 18.5C109.61 20.4 109.18 22.13 108.32 23.69C107.48 25.25 106.3 26.51 104.78 27.47C103.28 28.41 101.58 28.96 99.68 29.12V33.05H97.49V29.12C95.59 28.96 93.88 28.4 92.36 27.44C90.86 26.48 89.68 25.23 88.82 23.69C87.98 22.13 87.56 20.4 87.56 18.5C87.56 16.48 88.03 14.66 88.97 13.04C89.93 11.42 91.25 10.15 92.93 9.23C94.63 8.29 96.52 7.82 98.6 7.82C100.68 7.82 102.55 8.28 104.21 9.2C105.89 10.12 107.21 11.4 108.17 13.04C109.13 14.66 109.61 16.48 109.61 18.5ZM99.62 27.14C101.12 27 102.46 26.54 103.64 25.76C104.82 24.96 105.74 23.93 106.4 22.67C107.06 21.41 107.39 20.02 107.39 18.5C107.39 16.86 107.01 15.38 106.25 14.06C105.49 12.74 104.44 11.7 103.1 10.94C101.76 10.18 100.26 9.8 98.6 9.8C96.94 9.8 95.43 10.18 94.07 10.94C92.73 11.7 91.67 12.74 90.89 14.06C90.13 15.38 89.75 16.86 89.75 18.5C89.75 20.02 90.08 21.41 90.74 22.67C91.42 23.93 92.35 24.95 93.53 25.73C94.71 26.51 96.05 26.98 97.55 27.14V21.95H99.62V27.14ZM113.2 19.94H121.06V21.8H113.2V19.94ZM132.545 11.9V25.1H136.175V29H124.025V25.1H127.685V11.9H124.025V8H136.175V11.9H132.545ZM150.977 7.64C153.477 7.64 155.427 8.43 156.827 10.01C158.227 11.57 158.927 13.8 158.927 16.7V29H154.067V16.85C154.067 15.17 153.667 13.91 152.867 13.07C152.087 12.21 150.997 11.78 149.597 11.78C148.117 11.78 146.927 12.24 146.027 13.16C145.147 14.06 144.707 15.4 144.707 17.18V29H139.847V8H144.557V10.55C145.277 9.59 146.177 8.87 147.257 8.39C148.337 7.89 149.577 7.64 150.977 7.64ZM173.774 29.36C171.634 29.36 169.694 28.9 167.954 27.98C166.234 27.04 164.874 25.75 163.874 24.11C162.894 22.45 162.404 20.58 162.404 18.5C162.404 16.42 162.894 14.56 163.874 12.92C164.874 11.26 166.234 9.97 167.954 9.05C169.694 8.11 171.644 7.64 173.804 7.64C175.624 7.64 177.264 7.96 178.724 8.6C180.204 9.24 181.444 10.16 182.444 11.36L179.324 14.24C177.904 12.6 176.144 11.78 174.044 11.78C172.744 11.78 171.584 12.07 170.564 12.65C169.544 13.21 168.744 14 168.164 15.02C167.604 16.04 167.324 17.2 167.324 18.5C167.324 19.8 167.604 20.96 168.164 21.98C168.744 23 169.544 23.8 170.564 24.38C171.584 24.94 172.744 25.22 174.044 25.22C176.144 25.22 177.904 24.39 179.324 22.73L182.444 25.61C181.444 26.83 180.204 27.76 178.724 28.4C177.244 29.04 175.594 29.36 173.774 29.36Z" fill="black"/>
<path d="M94.685 43.87V55H93.665V53.44C93.345 53.97 92.92 54.375 92.39 54.655C91.87 54.935 91.28 55.075 90.62 55.075C89.88 55.075 89.21 54.905 88.61 54.565C88.01 54.225 87.54 53.75 87.2 53.14C86.86 52.53 86.69 51.835 86.69 51.055C86.69 50.275 86.86 49.58 87.2 48.97C87.54 48.36 88.01 47.89 88.61 47.56C89.21 47.22 89.88 47.05 90.62 47.05C91.26 47.05 91.835 47.185 92.345 47.455C92.865 47.715 93.29 48.1 93.62 48.61V43.87H94.685ZM90.71 54.13C91.26 54.13 91.755 54.005 92.195 53.755C92.645 53.495 92.995 53.13 93.245 52.66C93.505 52.19 93.635 51.655 93.635 51.055C93.635 50.455 93.505 49.92 93.245 49.45C92.995 48.98 92.645 48.62 92.195 48.37C91.755 48.11 91.26 47.98 90.71 47.98C90.15 47.98 89.645 48.11 89.195 48.37C88.755 48.62 88.405 48.98 88.145 49.45C87.895 49.92 87.77 50.455 87.77 51.055C87.77 51.655 87.895 52.19 88.145 52.66C88.405 53.13 88.755 53.495 89.195 53.755C89.645 54.005 90.15 54.13 90.71 54.13ZM97.651 47.11H98.716V55H97.651V47.11ZM98.191 45.385C97.971 45.385 97.786 45.31 97.636 45.16C97.486 45.01 97.411 44.83 97.411 44.62C97.411 44.42 97.486 44.245 97.636 44.095C97.786 43.945 97.971 43.87 98.191 43.87C98.411 43.87 98.596 43.945 98.746 44.095C98.896 44.235 98.971 44.405 98.971 44.605C98.971 44.825 98.896 45.01 98.746 45.16C98.596 45.31 98.411 45.385 98.191 45.385ZM108.984 47.11V54.04C108.984 55.38 108.654 56.37 107.994 57.01C107.344 57.66 106.359 57.985 105.039 57.985C104.309 57.985 103.614 57.875 102.954 57.655C102.304 57.445 101.774 57.15 101.364 56.77L101.904 55.96C102.284 56.3 102.744 56.565 103.284 56.755C103.834 56.945 104.409 57.04 105.009 57.04C106.009 57.04 106.744 56.805 107.214 56.335C107.684 55.875 107.919 55.155 107.919 54.175V53.17C107.589 53.67 107.154 54.05 106.614 54.31C106.084 54.57 105.494 54.7 104.844 54.7C104.104 54.7 103.429 54.54 102.819 54.22C102.219 53.89 101.744 53.435 101.394 52.855C101.054 52.265 100.884 51.6 100.884 50.86C100.884 50.12 101.054 49.46 101.394 48.88C101.744 48.3 102.219 47.85 102.819 47.53C103.419 47.21 104.094 47.05 104.844 47.05C105.514 47.05 106.119 47.185 106.659 47.455C107.199 47.725 107.634 48.115 107.964 48.625V47.11H108.984ZM104.949 53.755C105.519 53.755 106.034 53.635 106.494 53.395C106.954 53.145 107.309 52.8 107.559 52.36C107.819 51.92 107.949 51.42 107.949 50.86C107.949 50.3 107.819 49.805 107.559 49.375C107.309 48.935 106.954 48.595 106.494 48.355C106.044 48.105 105.529 47.98 104.949 47.98C104.379 47.98 103.864 48.1 103.404 48.34C102.954 48.58 102.599 48.92 102.339 49.36C102.089 49.8 101.964 50.3 101.964 50.86C101.964 51.42 102.089 51.92 102.339 52.36C102.599 52.8 102.954 53.145 103.404 53.395C103.864 53.635 104.379 53.755 104.949 53.755ZM111.963 47.11H113.028V55H111.963V47.11ZM112.503 45.385C112.283 45.385 112.098 45.31 111.948 45.16C111.798 45.01 111.723 44.83 111.723 44.62C111.723 44.42 111.798 44.245 111.948 44.095C112.098 43.945 112.283 43.87 112.503 43.87C112.723 43.87 112.908 43.945 113.058 44.095C113.208 44.235 113.283 44.405 113.283 44.605C113.283 44.825 113.208 45.01 113.058 45.16C112.908 45.31 112.723 45.385 112.503 45.385ZM119.876 54.52C119.676 54.7 119.431 54.84 119.141 54.94C118.851 55.03 118.546 55.075 118.226 55.075C117.486 55.075 116.916 54.875 116.516 54.475C116.116 54.075 115.916 53.51 115.916 52.78V45.385H116.981V47.11H119.366V48.01H116.981V52.72C116.981 53.19 117.096 53.55 117.326 53.8C117.556 54.04 117.891 54.16 118.331 54.16C118.811 54.16 119.201 54.025 119.501 53.755L119.876 54.52ZM128.728 47.11V55H127.708V53.44C127.388 53.97 126.963 54.375 126.433 54.655C125.913 54.935 125.323 55.075 124.663 55.075C123.923 55.075 123.253 54.905 122.653 54.565C122.053 54.225 121.583 53.75 121.243 53.14C120.903 52.53 120.733 51.835 120.733 51.055C120.733 50.275 120.903 49.58 121.243 48.97C121.583 48.36 122.053 47.89 122.653 47.56C123.253 47.22 123.923 47.05 124.663 47.05C125.303 47.05 125.878 47.185 126.388 47.455C126.908 47.715 127.333 48.1 127.663 48.61V47.11H128.728ZM124.753 54.13C125.303 54.13 125.798 54.005 126.238 53.755C126.688 53.495 127.038 53.13 127.288 52.66C127.548 52.19 127.678 51.655 127.678 51.055C127.678 50.455 127.548 49.92 127.288 49.45C127.038 48.98 126.688 48.62 126.238 48.37C125.798 48.11 125.303 47.98 124.753 47.98C124.193 47.98 123.688 48.11 123.238 48.37C122.798 48.62 122.448 48.98 122.188 49.45C121.938 49.92 121.813 50.455 121.813 51.055C121.813 51.655 121.938 52.19 122.188 52.66C122.448 53.13 122.798 53.495 123.238 53.755C123.688 54.005 124.193 54.13 124.753 54.13ZM133.914 55.075C133.204 55.075 132.654 54.875 132.264 54.475C131.884 54.075 131.694 53.52 131.694 52.81V43.87H132.759V52.72C132.759 53.19 132.869 53.55 133.089 53.8C133.309 54.04 133.639 54.16 134.079 54.16C134.359 54.16 134.599 54.115 134.799 54.025L134.874 54.91C134.564 55.02 134.244 55.075 133.914 55.075ZM147.449 47.11V55H146.429V53.44C146.109 53.97 145.684 54.375 145.154 54.655C144.634 54.935 144.044 55.075 143.384 55.075C142.644 55.075 141.974 54.905 141.374 54.565C140.774 54.225 140.304 53.75 139.964 53.14C139.624 52.53 139.454 51.835 139.454 51.055C139.454 50.275 139.624 49.58 139.964 48.97C140.304 48.36 140.774 47.89 141.374 47.56C141.974 47.22 142.644 47.05 143.384 47.05C144.024 47.05 144.599 47.185 145.109 47.455C145.629 47.715 146.054 48.1 146.384 48.61V47.11H147.449ZM143.474 54.13C144.024 54.13 144.519 54.005 144.959 53.755C145.409 53.495 145.759 53.13 146.009 52.66C146.269 52.19 146.399 51.655 146.399 51.055C146.399 50.455 146.269 49.92 146.009 49.45C145.759 48.98 145.409 48.62 144.959 48.37C144.519 48.11 144.024 47.98 143.474 47.98C142.914 47.98 142.409 48.11 141.959 48.37C141.519 48.62 141.169 48.98 140.909 49.45C140.659 49.92 140.534 50.455 140.534 51.055C140.534 51.655 140.659 52.19 140.909 52.66C141.169 53.13 141.519 53.495 141.959 53.755C142.409 54.005 142.914 54.13 143.474 54.13ZM157.72 47.11V54.04C157.72 55.38 157.39 56.37 156.73 57.01C156.08 57.66 155.095 57.985 153.775 57.985C153.045 57.985 152.35 57.875 151.69 57.655C151.04 57.445 150.51 57.15 150.1 56.77L150.64 55.96C151.02 56.3 151.48 56.565 152.02 56.755C152.57 56.945 153.145 57.04 153.745 57.04C154.745 57.04 155.48 56.805 155.95 56.335C156.42 55.875 156.655 55.155 156.655 54.175V53.17C156.325 53.67 155.89 54.05 155.35 54.31C154.82 54.57 154.23 54.7 153.58 54.7C152.84 54.7 152.165 54.54 151.555 54.22C150.955 53.89 150.48 53.435 150.13 52.855C149.79 52.265 149.62 51.6 149.62 50.86C149.62 50.12 149.79 49.46 150.13 48.88C150.48 48.3 150.955 47.85 151.555 47.53C152.155 47.21 152.83 47.05 153.58 47.05C154.25 47.05 154.855 47.185 155.395 47.455C155.935 47.725 156.37 48.115 156.7 48.625V47.11H157.72ZM153.685 53.755C154.255 53.755 154.77 53.635 155.23 53.395C155.69 53.145 156.045 52.8 156.295 52.36C156.555 51.92 156.685 51.42 156.685 50.86C156.685 50.3 156.555 49.805 156.295 49.375C156.045 48.935 155.69 48.595 155.23 48.355C154.78 48.105 154.265 47.98 153.685 47.98C153.115 47.98 152.6 48.1 152.14 48.34C151.69 48.58 151.335 48.92 151.075 49.36C150.825 49.8 150.7 50.3 150.7 50.86C150.7 51.42 150.825 51.92 151.075 52.36C151.335 52.8 151.69 53.145 152.14 53.395C152.6 53.635 153.115 53.755 153.685 53.755ZM164.073 54.13C164.563 54.13 165.013 54.045 165.423 53.875C165.843 53.695 166.198 53.435 166.488 53.095L167.088 53.785C166.738 54.205 166.303 54.525 165.783 54.745C165.263 54.965 164.688 55.075 164.058 55.075C163.248 55.075 162.528 54.905 161.898 54.565C161.268 54.215 160.778 53.735 160.428 53.125C160.078 52.515 159.903 51.825 159.903 51.055C159.903 50.285 160.068 49.595 160.398 48.985C160.738 48.375 161.203 47.9 161.793 47.56C162.383 47.22 163.053 47.05 163.803 47.05C164.503 47.05 165.133 47.21 165.693 47.53C166.263 47.85 166.713 48.295 167.043 48.865C167.383 49.435 167.563 50.085 167.583 50.815L161.103 52.075C161.303 52.715 161.663 53.22 162.183 53.59C162.713 53.95 163.343 54.13 164.073 54.13ZM163.803 47.965C163.253 47.965 162.758 48.095 162.318 48.355C161.888 48.605 161.548 48.96 161.298 49.42C161.058 49.87 160.938 50.39 160.938 50.98C160.938 51.13 160.943 51.24 160.953 51.31L166.518 50.23C166.398 49.57 166.093 49.03 165.603 48.61C165.113 48.18 164.513 47.965 163.803 47.965ZM173.771 47.05C174.761 47.05 175.546 47.34 176.126 47.92C176.716 48.49 177.011 49.325 177.011 50.425V55H175.946V50.53C175.946 49.71 175.741 49.085 175.331 48.655C174.921 48.225 174.336 48.01 173.576 48.01C172.726 48.01 172.051 48.265 171.551 48.775C171.061 49.275 170.816 49.97 170.816 50.86V55H169.751V47.11H170.771V48.565C171.061 48.085 171.461 47.715 171.971 47.455C172.491 47.185 173.091 47.05 173.771 47.05ZM183.201 55.075C182.421 55.075 181.721 54.905 181.101 54.565C180.491 54.225 180.011 53.75 179.661 53.14C179.311 52.52 179.136 51.825 179.136 51.055C179.136 50.285 179.311 49.595 179.661 48.985C180.011 48.375 180.491 47.9 181.101 47.56C181.721 47.22 182.421 47.05 183.201 47.05C183.881 47.05 184.486 47.185 185.016 47.455C185.556 47.715 185.981 48.1 186.291 48.61L185.496 49.15C185.236 48.76 184.906 48.47 184.506 48.28C184.106 48.08 183.671 47.98 183.201 47.98C182.631 47.98 182.116 48.11 181.656 48.37C181.206 48.62 180.851 48.98 180.591 49.45C180.341 49.92 180.216 50.455 180.216 51.055C180.216 51.665 180.341 52.205 180.591 52.675C180.851 53.135 181.206 53.495 181.656 53.755C182.116 54.005 182.631 54.13 183.201 54.13C183.671 54.13 184.106 54.035 184.506 53.845C184.906 53.655 185.236 53.365 185.496 52.975L186.291 53.515C185.981 54.025 185.556 54.415 185.016 54.685C184.476 54.945 183.871 55.075 183.201 55.075ZM195.493 47.11V54.04C195.493 55.38 195.188 56.37 194.578 57.01C193.968 57.66 193.048 57.985 191.818 57.985C191.128 57.985 190.473 57.875 189.853 57.655C189.243 57.445 188.748 57.15 188.368 56.77L188.908 55.96C189.248 56.3 189.668 56.565 190.168 56.755C190.668 56.945 191.203 57.04 191.773 57.04C192.683 57.04 193.353 56.805 193.783 56.335C194.213 55.875 194.428 55.155 194.428 54.175V53.26C194.148 53.72 193.763 54.075 193.273 54.325C192.793 54.575 192.248 54.7 191.638 54.7C190.608 54.7 189.793 54.415 189.193 53.845C188.603 53.265 188.308 52.42 188.308 51.31V47.11H189.373V51.205C189.373 52.035 189.578 52.665 189.988 53.095C190.398 53.525 190.983 53.74 191.743 53.74C192.573 53.74 193.228 53.49 193.708 52.99C194.188 52.48 194.428 51.775 194.428 50.875V47.11H195.493Z" fill="black"/>
<circle cx="32" cy="32" r="32" fill="#0500FF"/>
<path d="M43.15 31.5C43.15 33.3 42.77 34.95 42.01 36.45C41.25 37.93 40.18 39.17 38.8 40.17C37.44 41.17 35.87 41.83 34.09 42.15V46.05H29.2V42.15C27.44 41.83 25.87 41.17 24.49 40.17C23.13 39.17 22.07 37.92 21.31 36.42C20.55 34.92 20.17 33.28 20.17 31.5C20.17 29.44 20.66 27.59 21.64 25.95C22.64 24.29 24.01 22.99 25.75 22.05C27.51 21.11 29.48 20.64 31.66 20.64C33.84 20.64 35.8 21.11 37.54 22.05C39.28 22.99 40.65 24.29 41.65 25.95C42.65 27.59 43.15 29.44 43.15 31.5ZM33.88 37.89C35.22 37.47 36.28 36.7 37.06 35.58C37.84 34.44 38.23 33.08 38.23 31.5C38.23 30.2 37.94 29.04 37.36 28.02C36.8 27 36.02 26.21 35.02 25.65C34.02 25.07 32.9 24.78 31.66 24.78C30.42 24.78 29.3 25.07 28.3 25.65C27.3 26.21 26.51 27 25.93 28.02C25.37 29.04 25.09 30.2 25.09 31.5C25.09 33.08 25.47 34.43 26.23 35.55C27.01 36.67 28.06 37.45 29.38 37.89V33.57H33.88V37.89Z" fill="white"/>
</svg>
