<svg width="106" height="29" viewBox="0 0 106 29" fill="none" xmlns="http://www.w3.org/2000/svg">
<path d="M43.018 9.1C43.018 9.98667 42.8173 10.794 42.416 11.522C42.024 12.25 41.4733 12.838 40.764 13.286C40.064 13.7247 39.2707 13.9813 38.384 14.056V15.89H37.362V14.056C36.4753 13.9813 35.6773 13.72 34.968 13.272C34.268 12.824 33.7173 12.2407 33.316 11.522C32.924 10.794 32.728 9.98667 32.728 9.1C32.728 8.15733 32.9473 7.308 33.386 6.552C33.834 5.796 34.45 5.20333 35.234 4.774C36.0273 4.33533 36.9093 4.116 37.88 4.116C38.8507 4.116 39.7233 4.33067 40.498 4.76C41.282 5.18933 41.898 5.78667 42.346 6.552C42.794 7.308 43.018 8.15733 43.018 9.1ZM38.356 13.132C39.056 13.0667 39.6813 12.852 40.232 12.488C40.7827 12.1147 41.212 11.634 41.52 11.046C41.828 10.458 41.982 9.80933 41.982 9.1C41.982 8.33467 41.8047 7.644 41.45 7.028C41.0953 6.412 40.6053 5.92667 39.98 5.572C39.3547 5.21733 38.6547 5.04 37.88 5.04C37.1053 5.04 36.4007 5.21733 35.766 5.572C35.1407 5.92667 34.646 6.412 34.282 7.028C33.9273 7.644 33.75 8.33467 33.75 9.1C33.75 9.80933 33.904 10.458 34.212 11.046C34.5293 11.634 34.9633 12.11 35.514 12.474C36.0647 12.838 36.69 13.0573 37.39 13.132V10.71H38.356V13.132ZM44.6935 9.772H48.3615V10.64H44.6935V9.772ZM53.7212 6.02V12.18H55.4152V14H49.7452V12.18H51.4532V6.02H49.7452V4.2H55.4152V6.02H53.7212ZM62.3228 4.032C63.4895 4.032 64.3995 4.40067 65.0528 5.138C65.7061 5.866 66.0328 6.90667 66.0328 8.26V14H63.7648V8.33C63.7648 7.546 63.5781 6.958 63.2048 6.566C62.8408 6.16467 62.3321 5.964 61.6788 5.964C60.9881 5.964 60.4328 6.17867 60.0128 6.608C59.6021 7.028 59.3968 7.65333 59.3968 8.484V14H57.1288V4.2H59.3268V5.39C59.6628 4.942 60.0828 4.606 60.5868 4.382C61.0908 4.14867 61.6695 4.032 62.3228 4.032ZM72.9614 14.168C71.9627 14.168 71.0574 13.9533 70.2454 13.524C69.4427 13.0853 68.808 12.4833 68.3414 11.718C67.884 10.9433 67.6554 10.0707 67.6554 9.1C67.6554 8.12933 67.884 7.26133 68.3414 6.496C68.808 5.72133 69.4427 5.11933 70.2454 4.69C71.0574 4.25133 71.9674 4.032 72.9754 4.032C73.8247 4.032 74.59 4.18133 75.2714 4.48C75.962 4.77867 76.5407 5.208 77.0074 5.768L75.5514 7.112C74.8887 6.34667 74.0674 5.964 73.0874 5.964C72.4807 5.964 71.9394 6.09933 71.4634 6.37C70.9874 6.63133 70.614 7 70.3434 7.476C70.082 7.952 69.9514 8.49333 69.9514 9.1C69.9514 9.70667 70.082 10.248 70.3434 10.724C70.614 11.2 70.9874 11.5733 71.4634 11.844C71.9394 12.1053 72.4807 12.236 73.0874 12.236C74.0674 12.236 74.8887 11.8487 75.5514 11.074L77.0074 12.418C76.5407 12.9873 75.962 13.4213 75.2714 13.72C74.5807 14.0187 73.8107 14.168 72.9614 14.168Z" fill="black"/>
<path d="M37.79 19.58V27H37.11V25.96C36.8967 26.3133 36.6133 26.5833 36.26 26.77C35.9133 26.9567 35.52 27.05 35.08 27.05C34.5867 27.05 34.14 26.9367 33.74 26.71C33.34 26.4833 33.0267 26.1667 32.8 25.76C32.5733 25.3533 32.46 24.89 32.46 24.37C32.46 23.85 32.5733 23.3867 32.8 22.98C33.0267 22.5733 33.34 22.26 33.74 22.04C34.14 21.8133 34.5867 21.7 35.08 21.7C35.5067 21.7 35.89 21.79 36.23 21.97C36.5767 22.1433 36.86 22.4 37.08 22.74V19.58H37.79ZM35.14 26.42C35.5067 26.42 35.8367 26.3367 36.13 26.17C36.43 25.9967 36.6633 25.7533 36.83 25.44C37.0033 25.1267 37.09 24.77 37.09 24.37C37.09 23.97 37.0033 23.6133 36.83 23.3C36.6633 22.9867 36.43 22.7467 36.13 22.58C35.8367 22.4067 35.5067 22.32 35.14 22.32C34.7667 22.32 34.43 22.4067 34.13 22.58C33.8367 22.7467 33.6033 22.9867 33.43 23.3C33.2633 23.6133 33.18 23.97 33.18 24.37C33.18 24.77 33.2633 25.1267 33.43 25.44C33.6033 25.7533 33.8367 25.9967 34.13 26.17C34.43 26.3367 34.7667 26.42 35.14 26.42ZM39.7673 21.74H40.4773V27H39.7673V21.74ZM40.1273 20.59C39.9807 20.59 39.8573 20.54 39.7573 20.44C39.6573 20.34 39.6073 20.22 39.6073 20.08C39.6073 19.9467 39.6573 19.83 39.7573 19.73C39.8573 19.63 39.9807 19.58 40.1273 19.58C40.274 19.58 40.3973 19.63 40.4973 19.73C40.5973 19.8233 40.6473 19.9367 40.6473 20.07C40.6473 20.2167 40.5973 20.34 40.4973 20.44C40.3973 20.54 40.274 20.59 40.1273 20.59ZM47.3229 21.74V26.36C47.3229 27.2533 47.1029 27.9133 46.6629 28.34C46.2296 28.7733 45.5729 28.99 44.6929 28.99C44.2062 28.99 43.7429 28.9167 43.3029 28.77C42.8696 28.63 42.5162 28.4333 42.2429 28.18L42.6029 27.64C42.8562 27.8667 43.1629 28.0433 43.5229 28.17C43.8896 28.2967 44.2729 28.36 44.6729 28.36C45.3396 28.36 45.8296 28.2033 46.1429 27.89C46.4562 27.5833 46.6129 27.1033 46.6129 26.45V25.78C46.3929 26.1133 46.1029 26.3667 45.7429 26.54C45.3896 26.7133 44.9962 26.8 44.5629 26.8C44.0696 26.8 43.6196 26.6933 43.2129 26.48C42.8129 26.26 42.4962 25.9567 42.2629 25.57C42.0362 25.1767 41.9229 24.7333 41.9229 24.24C41.9229 23.7467 42.0362 23.3067 42.2629 22.92C42.4962 22.5333 42.8129 22.2333 43.2129 22.02C43.6129 21.8067 44.0629 21.7 44.5629 21.7C45.0096 21.7 45.4129 21.79 45.7729 21.97C46.1329 22.15 46.4229 22.41 46.6429 22.75V21.74H47.3229ZM44.6329 26.17C45.0129 26.17 45.3562 26.09 45.6629 25.93C45.9696 25.7633 46.2062 25.5333 46.3729 25.24C46.5462 24.9467 46.6329 24.6133 46.6329 24.24C46.6329 23.8667 46.5462 23.5367 46.3729 23.25C46.2062 22.9567 45.9696 22.73 45.6629 22.57C45.3629 22.4033 45.0196 22.32 44.6329 22.32C44.2529 22.32 43.9096 22.4 43.6029 22.56C43.3029 22.72 43.0662 22.9467 42.8929 23.24C42.7262 23.5333 42.6429 23.8667 42.6429 24.24C42.6429 24.6133 42.7262 24.9467 42.8929 25.24C43.0662 25.5333 43.3029 25.7633 43.6029 25.93C43.9096 26.09 44.2529 26.17 44.6329 26.17ZM49.3084 21.74H50.0184V27H49.3084V21.74ZM49.6684 20.59C49.5217 20.59 49.3984 20.54 49.2984 20.44C49.1984 20.34 49.1484 20.22 49.1484 20.08C49.1484 19.9467 49.1984 19.83 49.2984 19.73C49.3984 19.63 49.5217 19.58 49.6684 19.58C49.815 19.58 49.9384 19.63 50.0384 19.73C50.1384 19.8233 50.1884 19.9367 50.1884 20.07C50.1884 20.2167 50.1384 20.34 50.0384 20.44C49.9384 20.54 49.815 20.59 49.6684 20.59ZM54.5839 26.68C54.4506 26.8 54.2872 26.8933 54.0939 26.96C53.9006 27.02 53.6972 27.05 53.4839 27.05C52.9906 27.05 52.6106 26.9167 52.3439 26.65C52.0772 26.3833 51.9439 26.0067 51.9439 25.52V20.59H52.6539V21.74H54.2439V22.34H52.6539V25.48C52.6539 25.7933 52.7306 26.0333 52.8839 26.2C53.0372 26.36 53.2606 26.44 53.5539 26.44C53.8739 26.44 54.1339 26.35 54.3339 26.17L54.5839 26.68ZM60.4853 21.74V27H59.8053V25.96C59.592 26.3133 59.3086 26.5833 58.9553 26.77C58.6086 26.9567 58.2153 27.05 57.7753 27.05C57.282 27.05 56.8353 26.9367 56.4353 26.71C56.0353 26.4833 55.722 26.1667 55.4953 25.76C55.2686 25.3533 55.1553 24.89 55.1553 24.37C55.1553 23.85 55.2686 23.3867 55.4953 22.98C55.722 22.5733 56.0353 22.26 56.4353 22.04C56.8353 21.8133 57.282 21.7 57.7753 21.7C58.202 21.7 58.5853 21.79 58.9253 21.97C59.272 22.1433 59.5553 22.4 59.7753 22.74V21.74H60.4853ZM57.8353 26.42C58.202 26.42 58.532 26.3367 58.8253 26.17C59.1253 25.9967 59.3586 25.7533 59.5253 25.44C59.6986 25.1267 59.7853 24.77 59.7853 24.37C59.7853 23.97 59.6986 23.6133 59.5253 23.3C59.3586 22.9867 59.1253 22.7467 58.8253 22.58C58.532 22.4067 58.202 22.32 57.8353 22.32C57.462 22.32 57.1253 22.4067 56.8253 22.58C56.532 22.7467 56.2986 22.9867 56.1253 23.3C55.9586 23.6133 55.8753 23.97 55.8753 24.37C55.8753 24.77 55.9586 25.1267 56.1253 25.44C56.2986 25.7533 56.532 25.9967 56.8253 26.17C57.1253 26.3367 57.462 26.42 57.8353 26.42ZM63.9427 27.05C63.4693 27.05 63.1027 26.9167 62.8427 26.65C62.5893 26.3833 62.4627 26.0133 62.4627 25.54V19.58H63.1727V25.48C63.1727 25.7933 63.246 26.0333 63.3927 26.2C63.5393 26.36 63.7593 26.44 64.0527 26.44C64.2393 26.44 64.3993 26.41 64.5327 26.35L64.5827 26.94C64.376 27.0133 64.1627 27.05 63.9427 27.05ZM72.9658 21.74V27H72.2858V25.96C72.0724 26.3133 71.7891 26.5833 71.4358 26.77C71.0891 26.9567 70.6958 27.05 70.2558 27.05C69.7624 27.05 69.3158 26.9367 68.9158 26.71C68.5158 26.4833 68.2024 26.1667 67.9758 25.76C67.7491 25.3533 67.6358 24.89 67.6358 24.37C67.6358 23.85 67.7491 23.3867 67.9758 22.98C68.2024 22.5733 68.5158 22.26 68.9158 22.04C69.3158 21.8133 69.7624 21.7 70.2558 21.7C70.6824 21.7 71.0658 21.79 71.4058 21.97C71.7524 22.1433 72.0358 22.4 72.2558 22.74V21.74H72.9658ZM70.3158 26.42C70.6824 26.42 71.0124 26.3367 71.3058 26.17C71.6058 25.9967 71.8391 25.7533 72.0058 25.44C72.1791 25.1267 72.2658 24.77 72.2658 24.37C72.2658 23.97 72.1791 23.6133 72.0058 23.3C71.8391 22.9867 71.6058 22.7467 71.3058 22.58C71.0124 22.4067 70.6824 22.32 70.3158 22.32C69.9424 22.32 69.6058 22.4067 69.3058 22.58C69.0124 22.7467 68.7791 22.9867 68.6058 23.3C68.4391 23.6133 68.3558 23.97 68.3558 24.37C68.3558 24.77 68.4391 25.1267 68.6058 25.44C68.7791 25.7533 69.0124 25.9967 69.3058 26.17C69.6058 26.3367 69.9424 26.42 70.3158 26.42ZM79.8131 21.74V26.36C79.8131 27.2533 79.5931 27.9133 79.1531 28.34C78.7198 28.7733 78.0631 28.99 77.1831 28.99C76.6965 28.99 76.2331 28.9167 75.7931 28.77C75.3598 28.63 75.0065 28.4333 74.7331 28.18L75.0931 27.64C75.3465 27.8667 75.6531 28.0433 76.0131 28.17C76.3798 28.2967 76.7631 28.36 77.1631 28.36C77.8298 28.36 78.3198 28.2033 78.6331 27.89C78.9465 27.5833 79.1031 27.1033 79.1031 26.45V25.78C78.8831 26.1133 78.5931 26.3667 78.2331 26.54C77.8798 26.7133 77.4865 26.8 77.0531 26.8C76.5598 26.8 76.1098 26.6933 75.7031 26.48C75.3031 26.26 74.9865 25.9567 74.7531 25.57C74.5265 25.1767 74.4131 24.7333 74.4131 24.24C74.4131 23.7467 74.5265 23.3067 74.7531 22.92C74.9865 22.5333 75.3031 22.2333 75.7031 22.02C76.1031 21.8067 76.5531 21.7 77.0531 21.7C77.4998 21.7 77.9031 21.79 78.2631 21.97C78.6231 22.15 78.9131 22.41 79.1331 22.75V21.74H79.8131ZM77.1231 26.17C77.5031 26.17 77.8465 26.09 78.1531 25.93C78.4598 25.7633 78.6965 25.5333 78.8631 25.24C79.0365 24.9467 79.1231 24.6133 79.1231 24.24C79.1231 23.8667 79.0365 23.5367 78.8631 23.25C78.6965 22.9567 78.4598 22.73 78.1531 22.57C77.8531 22.4033 77.5098 22.32 77.1231 22.32C76.7431 22.32 76.3998 22.4 76.0931 22.56C75.7931 22.72 75.5565 22.9467 75.3831 23.24C75.2165 23.5333 75.1331 23.8667 75.1331 24.24C75.1331 24.6133 75.2165 24.9467 75.3831 25.24C75.5565 25.5333 75.7931 25.7633 76.0931 25.93C76.3998 26.09 76.7431 26.17 77.1231 26.17ZM84.0486 26.42C84.3753 26.42 84.6753 26.3633 84.9486 26.25C85.2286 26.13 85.4653 25.9567 85.6586 25.73L86.0586 26.19C85.8253 26.47 85.5353 26.6833 85.1886 26.83C84.8419 26.9767 84.4586 27.05 84.0386 27.05C83.4986 27.05 83.0186 26.9367 82.5986 26.71C82.1786 26.4767 81.8519 26.1567 81.6186 25.75C81.3853 25.3433 81.2686 24.8833 81.2686 24.37C81.2686 23.8567 81.3786 23.3967 81.5986 22.99C81.8253 22.5833 82.1353 22.2667 82.5286 22.04C82.9219 21.8133 83.3686 21.7 83.8686 21.7C84.3353 21.7 84.7553 21.8067 85.1286 22.02C85.5086 22.2333 85.8086 22.53 86.0286 22.91C86.2553 23.29 86.3753 23.7233 86.3886 24.21L82.0686 25.05C82.2019 25.4767 82.4419 25.8133 82.7886 26.06C83.1419 26.3 83.5619 26.42 84.0486 26.42ZM83.8686 22.31C83.5019 22.31 83.1719 22.3967 82.8786 22.57C82.5919 22.7367 82.3653 22.9733 82.1986 23.28C82.0386 23.58 81.9586 23.9267 81.9586 24.32C81.9586 24.42 81.9619 24.4933 81.9686 24.54L85.6786 23.82C85.5986 23.38 85.3953 23.02 85.0686 22.74C84.7419 22.4533 84.3419 22.31 83.8686 22.31ZM90.5138 21.7C91.1738 21.7 91.6971 21.8933 92.0838 22.28C92.4771 22.66 92.6738 23.2167 92.6738 23.95V27H91.9638V24.02C91.9638 23.4733 91.8271 23.0567 91.5538 22.77C91.2804 22.4833 90.8904 22.34 90.3838 22.34C89.8171 22.34 89.3671 22.51 89.0338 22.85C88.7071 23.1833 88.5438 23.6467 88.5438 24.24V27H87.8338V21.74H88.5138V22.71C88.7071 22.39 88.9738 22.1433 89.3138 21.97C89.6604 21.79 90.0604 21.7 90.5138 21.7ZM96.8009 27.05C96.2809 27.05 95.8142 26.9367 95.4009 26.71C94.9942 26.4833 94.6742 26.1667 94.4409 25.76C94.2075 25.3467 94.0909 24.8833 94.0909 24.37C94.0909 23.8567 94.2075 23.3967 94.4409 22.99C94.6742 22.5833 94.9942 22.2667 95.4009 22.04C95.8142 21.8133 96.2809 21.7 96.8009 21.7C97.2542 21.7 97.6575 21.79 98.0109 21.97C98.3709 22.1433 98.6542 22.4 98.8609 22.74L98.3309 23.1C98.1575 22.84 97.9375 22.6467 97.6709 22.52C97.4042 22.3867 97.1142 22.32 96.8009 22.32C96.4209 22.32 96.0775 22.4067 95.7709 22.58C95.4709 22.7467 95.2342 22.9867 95.0609 23.3C94.8942 23.6133 94.8109 23.97 94.8109 24.37C94.8109 24.7767 94.8942 25.1367 95.0609 25.45C95.2342 25.7567 95.4709 25.9967 95.7709 26.17C96.0775 26.3367 96.4209 26.42 96.8009 26.42C97.1142 26.42 97.4042 26.3567 97.6709 26.23C97.9375 26.1033 98.1575 25.91 98.3309 25.65L98.8609 26.01C98.6542 26.35 98.3709 26.61 98.0109 26.79C97.6509 26.9633 97.2475 27.05 96.8009 27.05ZM104.996 21.74V26.36C104.996 27.2533 104.792 27.9133 104.386 28.34C103.979 28.7733 103.366 28.99 102.546 28.99C102.086 28.99 101.649 28.9167 101.236 28.77C100.829 28.63 100.499 28.4333 100.246 28.18L100.606 27.64C100.832 27.8667 101.112 28.0433 101.446 28.17C101.779 28.2967 102.136 28.36 102.516 28.36C103.122 28.36 103.569 28.2033 103.856 27.89C104.142 27.5833 104.286 27.1033 104.286 26.45V25.84C104.099 26.1467 103.842 26.3833 103.516 26.55C103.196 26.7167 102.832 26.8 102.426 26.8C101.739 26.8 101.196 26.61 100.796 26.23C100.402 25.8433 100.206 25.28 100.206 24.54V21.74H100.916V24.47C100.916 25.0233 101.052 25.4433 101.326 25.73C101.599 26.0167 101.989 26.16 102.496 26.16C103.049 26.16 103.486 25.9933 103.806 25.66C104.126 25.32 104.286 24.85 104.286 24.25V21.74H104.996Z" fill="black"/>
<circle cx="14" cy="14" r="14" fill="#0500FF"/>
<path d="M22.1 14C22.1 15.2 21.8467 16.3 21.34 17.3C20.8333 18.2867 20.12 19.1133 19.2 19.78C18.2933 20.4467 17.2467 20.8867 16.06 21.1V23.7H12.8V21.1C11.6267 20.8867 10.58 20.4467 9.66 19.78C8.75333 19.1133 8.04667 18.28 7.54 17.28C7.03333 16.28 6.78 15.1867 6.78 14C6.78 12.6267 7.10667 11.3933 7.76 10.3C8.42667 9.19333 9.34 8.32667 10.5 7.7C11.6733 7.07333 12.9867 6.76 14.44 6.76C15.8933 6.76 17.2 7.07333 18.36 7.7C19.52 8.32667 20.4333 9.19333 21.1 10.3C21.7667 11.3933 22.1 12.6267 22.1 14ZM15.92 18.26C16.8133 17.98 17.52 17.4667 18.04 16.72C18.56 15.96 18.82 15.0533 18.82 14C18.82 13.1333 18.6267 12.36 18.24 11.68C17.8667 11 17.3467 10.4733 16.68 10.1C16.0133 9.71333 15.2667 9.52 14.44 9.52C13.6133 9.52 12.8667 9.71333 12.2 10.1C11.5333 10.4733 11.0067 11 10.62 11.68C10.2467 12.36 10.06 13.1333 10.06 14C10.06 15.0533 10.3133 15.9533 10.82 16.7C11.34 17.4467 12.04 17.9667 12.92 18.26V15.38H15.92V18.26Z" fill="white"/>
</svg>
