<svg width="15" height="15" viewBox="0 0 15 15" fill="none" xmlns="http://www.w3.org/2000/svg">
<path d="M11.77 8.88428C11.9849 8.88428 12.1899 8.92578 12.3853 9.00879C12.5854 9.08691 12.7612 9.20166 12.9126 9.35303L14.5239 10.9644C14.6753 11.1157 14.79 11.2915 14.8682 11.4917C14.9512 11.687 14.9927 11.8921 14.9927 12.1069C14.9927 12.3218 14.9512 12.5293 14.8682 12.7295C14.79 12.9248 14.6753 13.0981 14.5239 13.2495L14.4214 13.3521C14.1577 13.6157 13.916 13.8501 13.6963 14.0552C13.4766 14.2603 13.2471 14.4336 13.0078 14.5752C12.7686 14.7119 12.5024 14.8169 12.2095 14.8901C11.9165 14.9634 11.5674 15 11.1621 15C10.5518 15 9.92432 14.9048 9.27979 14.7144C8.63525 14.5239 7.99316 14.2603 7.35352 13.9233C6.71875 13.5864 6.09375 13.186 5.47852 12.7222C4.86816 12.2583 4.28955 11.7529 3.74268 11.2061C3.20068 10.6543 2.7002 10.0732 2.24121 9.46289C1.78223 8.84766 1.38672 8.22266 1.05469 7.58789C0.722656 6.94824 0.463867 6.31104 0.27832 5.67627C0.0927734 5.0415 0 4.42627 0 3.83057C0 3.42529 0.0341797 3.07861 0.102539 2.79053C0.175781 2.50244 0.280762 2.23877 0.41748 1.99951C0.559082 1.76025 0.72998 1.5332 0.930176 1.31836C1.13525 1.09863 1.36963 0.856934 1.6333 0.593262L1.75049 0.476074C1.90186 0.324707 2.0752 0.20752 2.27051 0.124512C2.46582 0.0415039 2.67334 0 2.89307 0C3.10791 0 3.31299 0.0415039 3.5083 0.124512C3.7085 0.20752 3.88428 0.324707 4.03564 0.476074L5.64697 2.0874C5.79834 2.23877 5.91309 2.41455 5.99121 2.61475C6.07422 2.81006 6.11572 3.01514 6.11572 3.22998C6.11572 3.44482 6.0791 3.6377 6.00586 3.80859C5.93262 3.97461 5.84229 4.12598 5.73486 4.2627C5.62744 4.39941 5.50781 4.52393 5.37598 4.63623C5.24902 4.74854 5.13184 4.8584 5.02441 4.96582C4.91699 5.07324 4.82666 5.18311 4.75342 5.29541C4.68018 5.40283 4.64355 5.52002 4.64355 5.64697C4.64355 5.83252 4.70947 5.99121 4.84131 6.12305L8.87695 10.1587C9.00879 10.2905 9.16748 10.3564 9.35303 10.3564C9.47998 10.3564 9.59717 10.3198 9.70459 10.2466C9.81689 10.1733 9.92676 10.083 10.0342 9.97559C10.1416 9.86816 10.2515 9.75098 10.3638 9.62402C10.4761 9.49219 10.6006 9.37256 10.7373 9.26514C10.874 9.15771 11.0254 9.06738 11.1914 8.99414C11.3623 8.9209 11.5552 8.88428 11.77 8.88428ZM11.1621 14.0625C11.5137 14.0625 11.8066 14.0308 12.041 13.9673C12.2803 13.8989 12.4951 13.8037 12.6855 13.6816C12.876 13.5547 13.0615 13.3984 13.2422 13.2129C13.4229 13.0273 13.6304 12.8174 13.8647 12.583C13.9966 12.4512 14.0625 12.2925 14.0625 12.1069C14.0625 12.019 14.0259 11.9165 13.9526 11.7993C13.8843 11.6772 13.7939 11.5503 13.6816 11.4185C13.5693 11.2866 13.4424 11.1523 13.3008 11.0156C13.1641 10.874 13.0273 10.7422 12.8906 10.6201C12.7588 10.4932 12.6343 10.3784 12.5171 10.2759C12.4048 10.1685 12.3169 10.083 12.2534 10.0195C12.1216 9.8877 11.9604 9.82178 11.77 9.82178C11.6431 9.82178 11.5259 9.8584 11.4185 9.93164C11.311 10.0049 11.2036 10.0952 11.0962 10.2026C10.9888 10.3101 10.8765 10.4297 10.7593 10.5615C10.647 10.6885 10.5225 10.8057 10.3857 10.9131C10.249 11.0205 10.0952 11.1108 9.92432 11.1841C9.7583 11.2573 9.56787 11.2939 9.35303 11.2939C9.13818 11.2939 8.93066 11.2549 8.73047 11.1768C8.53516 11.0938 8.36182 10.9766 8.21045 10.8252L4.1748 6.78955C4.02344 6.63818 3.90625 6.46484 3.82324 6.26953C3.74512 6.06934 3.70605 5.86182 3.70605 5.64697C3.70605 5.43213 3.74268 5.2417 3.81592 5.07568C3.88916 4.90479 3.97949 4.75098 4.08691 4.61426C4.19434 4.47754 4.31152 4.35303 4.43848 4.24072C4.57031 4.12354 4.68994 4.01123 4.79736 3.90381C4.90479 3.79639 4.99512 3.68896 5.06836 3.58154C5.1416 3.47412 5.17822 3.35693 5.17822 3.22998C5.17822 3.03955 5.1123 2.87842 4.98047 2.74658C4.91699 2.68311 4.83154 2.59521 4.72412 2.48291C4.62158 2.36572 4.50684 2.24121 4.37988 2.10938C4.25781 1.97266 4.12598 1.83594 3.98438 1.69922C3.84766 1.55762 3.71338 1.43066 3.58154 1.31836C3.44971 1.20605 3.32275 1.11572 3.20068 1.04736C3.0835 0.974121 2.98096 0.9375 2.89307 0.9375C2.70752 0.9375 2.54883 1.00342 2.41699 1.13525C2.18262 1.36963 1.97266 1.57715 1.78711 1.75781C1.60645 1.93848 1.4502 2.12402 1.31836 2.31445C1.19141 2.50488 1.09375 2.71973 1.02539 2.95898C0.961914 3.19336 0.930176 3.48389 0.930176 3.83057C0.930176 4.37744 1.01807 4.94141 1.19385 5.52246C1.37451 6.10352 1.62109 6.68457 1.93359 7.26562C2.25098 7.84668 2.62451 8.42041 3.0542 8.98682C3.48389 9.54834 3.95264 10.0806 4.46045 10.5835C4.96826 11.0864 5.50293 11.5503 6.06445 11.9751C6.63086 12.3999 7.20215 12.7686 7.77832 13.0811C8.35938 13.3887 8.93555 13.6304 9.50684 13.8062C10.083 13.9771 10.6348 14.0625 11.1621 14.0625Z" fill="#FF4133"/>
</svg>
