<svg width="250" height="320" viewBox="0 0 250 320" fill="none" xmlns="http://www.w3.org/2000/svg">
<path fill-rule="evenodd" clip-rule="evenodd" d="M84.6489 47.7592C80.3749 42.7423 77.4822 36.5942 77.9655 29.705C79.3583 9.85525 106.99 14.2219 112.365 24.2404C117.74 34.2588 117.101 59.6714 110.154 61.462C107.384 62.176 101.483 60.4268 95.4761 56.8065L99.2462 83.4785H76.9854L84.6489 47.7592Z" fill="#B28B67"/>
<path fill-rule="evenodd" clip-rule="evenodd" d="M122.227 10.352C121.766 8.73167 120.526 7.34431 118.855 6.93272C118.45 6.83289 118.031 6.79256 117.614 6.80938C117.465 6.81534 117.423 6.85847 117.353 6.75388C117.301 6.67634 117.3 6.4869 117.278 6.39578C117.212 6.11241 117.129 5.83257 117.027 5.55999C116.677 4.63027 116.089 3.80746 115.381 3.11433C114.056 1.81761 112.266 0.922674 110.406 0.760767C109.388 0.672199 108.378 0.837578 107.416 1.1687C106.917 1.34011 106.434 1.55355 105.964 1.78953C105.822 1.86055 105.362 2.20843 105.22 2.18589C105.063 2.16104 104.748 1.77083 104.62 1.67288C103.042 0.46211 101.093 -0.0139258 99.1275 0.00030924C96.9088 0.0170181 94.7724 0.12788 92.922 1.48039C92.5303 1.76675 92.1573 2.08027 91.8021 2.41035C91.615 2.58414 91.4339 2.76444 91.2611 2.95224C91.1568 3.06553 91.0553 3.18139 90.9576 3.30035C90.7918 3.50228 90.8184 3.56862 90.5863 3.42773C89.6957 2.8867 88.6638 2.63366 87.6244 2.7614C87.0072 2.83729 86.4067 3.02259 85.8365 3.26649C85.6423 3.34951 85.193 3.6807 84.9861 3.68392C84.7808 3.68709 84.3377 3.38009 84.1263 3.30206C82.9843 2.88048 81.7534 2.77656 80.553 2.97136C79.3148 3.17238 78.0985 3.66638 77.0494 4.34904C76.5449 4.67742 76.1046 5.04125 75.751 5.52953C75.5983 5.74035 75.4603 5.96335 75.2873 6.15882C75.186 6.27328 74.9853 6.39072 74.931 6.53557C74.9635 6.44883 73.5768 5.91426 73.446 5.88009C72.7489 5.69802 72.039 5.73493 71.3564 5.95958C70.0728 6.38201 68.9689 7.32933 68.0616 8.30059C67.5956 8.79947 67.1878 9.35091 66.8417 9.93842C66.6758 10.2198 66.5241 10.5093 66.3853 10.8049C66.318 10.9481 66.2734 11.1273 66.1848 11.2563C66.0706 11.4225 65.9939 11.4257 65.787 11.4982C64.7365 11.8662 63.7788 12.4892 63.0495 13.3309C62.3119 14.1825 61.8332 15.2313 61.6325 16.3357C61.6207 16.4008 61.6137 16.6704 61.5756 16.7056C61.5234 16.754 61.3121 16.7326 61.2322 16.742C60.9555 16.7745 60.6807 16.8228 60.4096 16.887C59.9098 17.0053 59.4233 17.1793 58.9631 17.407C57.1692 18.2946 55.8864 19.9586 55.2586 21.8309C54.5998 23.7958 54.6114 26.047 55.3988 27.9753C55.526 28.2867 55.6773 28.589 55.8551 28.875C55.9642 29.0506 55.9995 29.051 55.9286 29.2352C55.8496 29.4401 55.7053 29.6392 55.6115 29.8395C55.3054 30.4929 55.0915 31.1859 54.9564 31.8937C54.7347 33.0548 54.6248 34.2749 54.8435 35.4448C54.9451 35.988 55.122 36.5191 55.392 37.0029C55.5296 37.2496 55.6907 37.4836 55.8725 37.7C55.9669 37.8124 56.0672 37.9197 56.1721 38.0225C56.232 38.0812 56.3107 38.1326 56.3617 38.1983C56.4862 38.3582 56.5123 38.2267 56.4481 38.4616C56.3584 38.79 56.1549 39.114 56.0303 39.4335C55.9019 39.7628 55.7858 40.0966 55.6797 40.4337C55.4647 41.1163 55.2829 41.8113 55.1692 42.5182C54.9509 43.8754 54.9893 45.3215 55.6312 46.5671C55.9057 47.0999 56.2995 47.5673 56.7771 47.9309C57.0109 48.1088 57.2641 48.2621 57.5297 48.388C57.6662 48.4528 57.8404 48.4806 57.9027 48.6126C57.9697 48.7545 57.8702 49.0363 57.8475 49.195C57.6501 50.5754 57.5511 52.0248 57.9615 53.3776C58.3394 54.6235 59.1716 55.7236 60.2519 56.452C62.3478 57.8648 65.173 57.7852 67.3752 56.6541C67.9493 56.3592 68.4863 55.9931 68.9654 55.5613C70.1853 57.2035 72.6956 57.1515 74.4786 56.6836C76.6999 56.1007 78.4823 54.5561 79.5092 52.5267C80.9134 54.2361 83.8604 53.6815 84.8341 51.8271C85.0725 51.3732 85.2138 50.873 85.2834 50.3668C85.32 50.1006 85.2967 49.8321 85.3242 49.568C85.3593 49.2316 85.5841 48.9046 85.7133 48.5791C85.9649 47.9456 86.1211 47.2912 86.1278 46.6078C86.1313 46.2511 86.0861 45.9034 86.0522 45.5495C86.0217 45.2309 86.11 44.9341 86.1602 44.6197C85.5905 44.7135 84.8965 44.5598 84.3597 44.3946C83.833 44.2325 83.3397 43.8056 82.968 43.4157C82.1048 42.5103 81.5774 41.3234 81.2168 40.1421C80.4251 37.5494 80.7497 34.4388 83.3574 33.0158C84.5723 32.353 88.2118 32.3551 89.6587 32.6828C91.1801 33.0272 92.9048 36.3842 92.9897 36.6997C93.0422 36.895 93.0158 37.1367 93.1952 37.2668C93.5895 37.5529 94.2397 37.0564 94.5305 36.8114C95.0323 36.3885 95.3903 35.8258 95.7003 35.2554C96.3758 34.0127 96.9203 32.6801 97.305 31.3198C97.6016 30.271 97.7912 29.1895 98.1788 28.1674C98.5645 27.1504 99.1725 26.2414 100.118 25.6653C101.146 25.0385 102.325 24.7084 103.454 24.3146C104.573 23.9242 105.673 23.4472 106.54 22.6189C106.731 22.4368 106.916 22.2433 107.07 22.0289C107.191 21.8596 107.311 21.5355 107.496 21.4282C107.783 21.2612 108.202 21.6954 108.45 21.8531C109.675 22.6309 110.696 23.7158 111.521 24.9009C112.34 26.0796 113.013 27.2137 113.559 28.5299C113.964 29.506 114.217 30.7561 114.93 31.5561C115.248 31.9133 117.614 32.1294 118.38 31.8175C119.147 31.5057 120.006 30.696 120.263 30.1885C120.526 29.6691 120.589 29.0985 120.476 28.5299C120.41 28.1954 120.275 27.8829 120.201 27.5543C120.139 27.2783 120.082 27.0174 119.948 26.7646C119.694 26.2854 119.259 25.941 118.734 25.797C119.28 25.2937 119.732 24.6916 120.045 24.0185C120.37 23.3192 120.646 22.4688 120.724 21.7013C120.788 21.0779 120.69 20.432 120.349 19.8963C119.99 19.3343 119.356 18.9677 118.808 18.6171C119.646 17.9613 120.363 17.1638 120.953 16.2808C122.1 14.5637 122.809 12.3992 122.227 10.352Z" fill="#191847"/>
<path fill-rule="evenodd" clip-rule="evenodd" d="M14.8406 199.421H121.507C129.703 199.421 136.348 206.065 136.348 214.261V299.595C136.348 307.791 129.703 314.435 121.507 314.435H14.8406C6.64435 314.435 0 307.791 0 299.595V214.261C0 206.065 6.64435 199.421 14.8406 199.421ZM29.6812 225.392C27.6321 225.392 25.971 227.053 25.971 229.102V284.754C25.971 286.803 27.6321 288.464 29.6812 288.464H106.667C108.716 288.464 110.377 286.803 110.377 284.754V229.102C110.377 227.053 108.716 225.392 106.667 225.392H29.6812Z" fill="#C5CFD6"/>
<path fill-rule="evenodd" clip-rule="evenodd" d="M202.675 311.338C190.791 285.035 182.197 262.131 178.747 250.047C172.84 229.356 168.346 211.149 167.21 204.35C164.502 188.136 188.045 187.192 191.156 195.25C195.866 207.446 204.089 247.517 213.969 308.043L202.675 311.338ZM64.8242 228.791C75.728 224.481 113.913 210.993 132.329 207.177C137.621 206.081 142.751 205.062 147.573 204.142C161.907 201.405 169.334 227.264 155.528 229.251C121.147 234.199 72.4063 239.309 68.2351 239.883C62.3891 240.686 57.9714 231.5 64.8242 228.791Z" fill="#B28B67"/>
<path fill-rule="evenodd" clip-rule="evenodd" d="M156.371 197.024L97.3914 167V160.464H104.406C161.465 175.004 190.623 184.322 191.878 188.418C191.892 188.462 191.904 188.506 191.915 188.55C191.944 188.588 191.972 188.626 192 188.664C203.308 204.216 210.08 280.141 212.303 285.826L190.634 289.059C182.346 258.322 155.826 236.91 156.531 200.097C156.34 199.017 156.292 197.993 156.371 197.024Z" fill="#1F28CF"/>
<path fill-rule="evenodd" clip-rule="evenodd" d="M102.292 214.855C96.8951 213.775 91.9255 212.811 87.6732 212.065C60.2056 207.247 52.1959 192.544 56.9317 160.464H107.54C115.807 162.839 158.77 180.856 181.061 190.439C195.815 196.781 191.164 219.645 182.809 225.595C182.764 225.96 182.613 226.208 182.345 226.319C137.402 244.947 101.848 235.173 89.9709 238.296L84.4773 220.966L102.292 214.855Z" fill="#2B44FF"/>
<path fill-rule="evenodd" clip-rule="evenodd" d="M68.5522 226.034C65.6076 226.316 63.5173 226.758 62.2812 227.361C60.7779 228.094 58.7063 229.414 56.0664 231.322C56.917 233.066 64.5615 248.739 78.9997 278.342C83.6352 277.594 85.472 275.825 84.5101 273.035C83.5482 270.246 82.7724 267.917 82.1826 266.049L81.2663 239.442C81.2487 238.931 80.8194 238.53 80.3074 238.547C80.2987 238.548 80.2899 238.548 80.2812 238.549L76.1883 238.806C73.8626 236.923 72.3282 235.22 71.585 233.697C70.9812 232.459 70.6473 230.505 70.5834 227.836L70.5834 227.836C70.5589 226.812 69.7087 226.002 68.6844 226.026C68.6403 226.027 68.5962 226.03 68.5522 226.034Z" fill="#E4E4E4"/>
<path fill-rule="evenodd" clip-rule="evenodd" d="M197.267 306.46C196.229 309.23 195.71 311.303 195.71 312.678C195.71 314.351 195.989 316.792 196.546 320C198.486 320 215.925 320 248.861 320C250.22 315.506 249.436 313.08 246.507 312.721C243.578 312.363 241.144 312.039 239.207 311.751L214.892 300.911C214.424 300.702 213.875 300.912 213.667 301.38C213.663 301.388 213.66 301.396 213.656 301.404L212.093 305.196C209.382 306.461 207.179 307.093 205.483 307.093C204.106 307.093 202.204 306.537 199.777 305.425L199.777 305.425C198.846 304.998 197.745 305.407 197.318 306.338C197.299 306.378 197.282 306.419 197.267 306.46Z" fill="#E4E4E4"/>
<path fill-rule="evenodd" clip-rule="evenodd" d="M151.23 145.736L177.505 171.368C185.15 174.629 191.414 178.23 196.297 182.171C197.395 183.495 198.591 186.033 193.424 184.898C188.257 183.762 182.772 182.8 181.801 184.48C180.83 186.16 183.691 188.735 181.896 190.934C180.7 192.4 176.676 187.737 169.825 176.945L142.503 160.836L151.23 145.736ZM34.6045 149.351L53.9876 149.427C42.0194 188.062 35.5584 208.562 34.6045 210.926C32.4582 216.245 37 224.346 38.9423 228.699C32.6164 231.53 33.2904 221.047 25.3106 224.759C18.0269 228.148 12.4862 234.288 4.07101 229.095C3.03641 228.457 1.90265 226.053 4.64195 224.175C11.4665 219.495 21.3012 211.305 22.63 208.61C24.4421 204.933 28.4336 185.18 34.6045 149.351Z" fill="#B28B67"/>
<path fill-rule="evenodd" clip-rule="evenodd" d="M89.688 68.0184L97.7086 66.6427C111.517 101.138 135.626 132.481 170.034 160.673L144.034 192.261C109.629 152.12 88.4222 110.706 89.688 68.0184Z" fill="#191847"/>
<path fill-rule="evenodd" clip-rule="evenodd" d="M54.7246 168.812H126.145C109.598 128.58 101.325 94.4037 101.325 66.2827L79.7813 63.0728C62.8497 90.3037 58.0682 123.831 54.7246 168.812Z" fill="#DDE3E9"/>
<path fill-rule="evenodd" clip-rule="evenodd" d="M79.3253 63.088C79.3281 63.0829 79.3309 63.0778 79.3338 63.0728H80.7401C82.4228 63.1307 84.9859 63.2351 88.4293 63.386L93.6351 78.2629C94.1857 96.4014 97.4015 132.955 103.282 187.925H56.4649C56.5876 191.721 56.79 195.553 57.072 199.421H22.261C27.4681 140.674 46.4838 95.2248 79.3081 63.0728L79.3253 63.088V63.088Z" fill="#2F3676"/>
<path fill-rule="evenodd" clip-rule="evenodd" d="M59.5574 139.348C60.8898 163.014 64.2258 179.328 69.5653 188.291H56.4769C55.9039 171.264 56.9307 154.95 59.5574 139.348V139.348Z" fill="black" fill-opacity="0.1"/>
<path fill-rule="evenodd" clip-rule="evenodd" d="M66.8855 159.536L89.971 148.804V159.536H66.8855Z" fill="white" fill-opacity="0.2"/>
</svg>
